<?xml version="1.0" standalone="no"?><!DOCTYPE svg PUBLIC "-//W3C//DTD SVG 1.1//EN" "http://www.w3.org/Graphics/SVG/1.1/DTD/svg11.dtd"><svg t="1547800930637" class="icon" style="" viewBox="0 0 1024 1024" version="1.1" xmlns="http://www.w3.org/2000/svg" p-id="2122" xmlns:xlink="http://www.w3.org/1999/xlink" width="20" height="20"><defs><style type="text/css"></style></defs><path d="M119.579981 119.560026l185.746448 0c16.074094 0 29.283953-13.134135 29.283953-29.322839 0-16.303314-13.113669-29.321816-29.283953-29.321816l-215.107149 0c-8.037047 0-15.34857 3.282766-20.655436 8.590656-5.383614 5.307889-8.629541 12.619412-8.629541 20.694321L60.934303 305.306474c0 16.074094 13.134135 29.283953 29.321816 29.283953 16.303314 0 29.322839-13.114692 29.322839-29.283953L119.578957 119.560026zM901.51076 119.560026 715.764312 119.560026c-16.093537 0-29.283953-13.134135-29.283953-29.322839 0-16.303314 13.114692-29.321816 29.283953-29.321816l215.107149 0c8.037047 0 15.34857 3.282766 20.655436 8.590656 5.384637 5.307889 8.629541 12.619412 8.629541 20.694321L960.156438 305.306474c0 16.074094-13.134135 29.283953-29.321816 29.283953-16.303314 0-29.322839-13.114692-29.322839-29.283953L901.511783 119.560026zM119.579981 901.489782l185.746448 0c16.074094 0 29.283953 13.133112 29.283953 29.321816 0 16.303314-13.113669 29.321816-29.283953 29.321816l-215.107149 0c-8.037047 0-15.34857-3.28379-20.655436-8.590656-5.383614-5.306866-8.629541-12.619412-8.629541-20.694321L60.934303 715.744357c0-16.075117 13.134135-29.286 29.321816-29.286 16.303314 0 29.322839 13.114692 29.322839 29.286L119.578957 901.489782zM901.51076 901.489782 715.764312 901.489782c-16.093537 0-29.283953 13.133112-29.283953 29.321816 0 16.303314 13.114692 29.321816 29.283953 29.321816l215.107149 0c8.037047 0 15.34857-3.28379 20.655436-8.590656 5.384637-5.306866 8.629541-12.619412 8.629541-20.694321L960.156438 715.744357c0-16.075117-13.134135-29.286-29.321816-29.286-16.303314 0-29.322839 13.114692-29.322839 29.286L901.511783 901.489782z" p-id="2123" fill="#ffffff"></path></svg>