<?xml version="1.0" standalone="no"?><!DOCTYPE svg PUBLIC "-//W3C//DTD SVG 1.1//EN" "http://www.w3.org/Graphics/SVG/1.1/DTD/svg11.dtd"><svg t="1547450038460" class="icon" style="" viewBox="0 0 1025 1024" version="1.1" xmlns="http://www.w3.org/2000/svg" p-id="1286" data-spm-anchor-id="a313x.7781069.0.i7" xmlns:xlink="http://www.w3.org/1999/xlink" width="20.01953125" height="20"><defs><style type="text/css"></style></defs><path d="M548.316196 512l468.011988-468.011988c10.22977-10.22977 10.22977-26.085914 0-36.315684s-26.085914-10.22977-36.315684 0L512.000511 475.684316 43.988523 8.183816c-10.22977-10.22977-26.085914-10.22977-36.315684 0s-10.22977 26.085914 0 36.315684L475.684827 512 8.184328 980.011988c-10.22977 10.22977-10.22977 26.085914 0 36.315684 5.114885 5.114885 11.764236 7.672328 17.902098 7.672328s13.298701-2.557443 17.902097-7.672328l468.011988-468.011988 468.011989 468.011988c5.114885 5.114885 11.764236 7.672328 17.902097 7.672328s13.298701-2.557443 17.902098-7.672328c10.22977-10.22977 10.22977-26.085914 0-36.315684L548.316196 512z" p-id="1287" fill="#ffffff" data-spm-anchor-id="a313x.7781069.0.i5" class="selected"></path></svg>